<svg xmlns="http://www.w3.org/2000/svg" width="200" height="200" viewBox="0 0 24 24" fill="#6A44D2">
    <path d="M9 2c-1.193 0-2.21.55-3.248 1.227-.01.007-.02.014-.03.022-1.12 1.12-2.722 2.44-2.722 4.751 0 2.312 1.602 3.63 2.722 4.751.01.008.02.015.03.022.98.64 2.055 1.227 3.248 1.227s2.268-.587 3.248-1.227c.01-.007.02-.014.03-.022 1.12-1.12 2.722-2.44 2.722-4.751 0-2.312-1.602-3.63-2.722-4.751-.01-.008-.02-.015-.03-.022-.98-.64-2.055-1.227-3.248-1.227zm-1 15.732c-1.193 0-2.21.55-3.248 1.227-.01.007-.02.014-.03.022-1.12 1.12-2.722 2.44-2.722 4.751l-1 .268v-1c0-2.312 1.602-3.63 2.722-4.751.01-.008.02-.015.03-.022.98-.64 2.055-1.227 3.248-1.227zm2 0c1.193 0 2.21-.55 3.248-1.227.01-.007.02-.014.03-.022 1.12-1.12 2.722-2.44 2.722-4.751l1 .268v1c0 2.312-1.602 3.63-2.722 4.751-.01.008-.02-.015-.03-.022-.98.64-2.055 1.227-3.248 1.227z"/>
</svg>